<?xml version="1.0" standalone="no"?>
<!DOCTYPE svg PUBLIC "-//W3C//DTD SVG 20010904//EN"
 "http://www.w3.org/TR/2001/REC-SVG-20010904/DTD/svg10.dtd">
<svg version="1.0" xmlns="http://www.w3.org/2000/svg"
 width="559.000000pt" height="559.000000pt" viewBox="0 0 559.000000 559.000000"
 preserveAspectRatio="xMidYMid meet">
<metadata>
Created by potrace 1.14, written by Peter Selinger 2001-2017
</metadata>
<g transform="translate(0.000000,559.000000) scale(0.100000,-0.100000)"
fill="#000000" stroke="none">
<path d="M2535 5540 c-33 -4 -87 -11 -120 -15 -33 -4 -63 -9 -66 -11 -4 -2
-24 -6 -45 -10 -134 -21 -352 -83 -507 -145 -171 -68 -425 -197 -435 -221 -2
-5 -8 -8 -13 -8 -14 0 -139 -86 -249 -171 -125 -97 -313 -280 -408 -399 -42
-52 -80 -96 -84 -98 -5 -2 -8 -10 -8 -17 0 -7 -3 -15 -7 -17 -8 -3 -74 -96
-108 -151 -128 -209 -223 -403 -280 -571 -51 -150 -106 -365 -121 -474 -3 -26
-7 -49 -9 -52 -25 -42 -26 -697 -1 -739 2 -3 6 -28 10 -56 5 -40 62 -300 80
-365 11 -39 76 -229 91 -265 9 -22 24 -58 33 -80 43 -103 151 -302 229 -419
152 -229 358 -455 553 -608 41 -32 82 -64 90 -71 55 -44 388 -247 407 -247 3
0 33 -13 67 -29 112 -52 130 -60 261 -104 111 -38 250 -77 321 -91 11 -2 53
-11 94 -19 176 -36 243 -42 495 -42 198 0 365 8 384 19 4 2 29 6 58 10 105 12
415 91 466 118 10 5 26 11 35 13 24 5 86 29 92 35 3 3 12 6 20 8 8 2 74 32
145 67 513 253 970 691 1238 1185 80 149 173 385 212 540 9 36 20 79 25 95 12
38 37 173 45 245 4 30 8 57 10 60 3 5 13 113 20 225 7 104 7 255 0 256 -19 3
-1244 -1210 -1527 -1512 -75 -80 -168 -171 -206 -202 -64 -53 -259 -163 -270
-153 -2 3 -16 0 -31 -5 -44 -17 -100 -23 -226 -24 -127 0 -153 3 -237 30 -194
61 -360 212 -445 403 -14 31 -26 64 -28 72 -2 8 -10 43 -19 77 -17 63 -22 214
-11 288 35 228 165 415 367 532 47 27 170 72 217 79 20 3 47 7 61 10 33 6 179
6 206 0 12 -2 37 -7 55 -10 63 -10 169 -47 231 -81 78 -42 190 -142 224 -201
l26 -45 61 58 c66 63 317 308 630 616 108 106 197 199 197 205 0 6 -21 31 -47
54 -26 24 -223 219 -438 433 -366 367 -520 515 -532 515 -5 0 -238 -234 -1031
-1035 -421 -426 -466 -463 -629 -520 -108 -37 -151 -45 -268 -45 -281 -1 -540
148 -677 390 -26 47 -71 160 -63 160 2 0 0 12 -5 26 -25 64 -27 298 -4 336 3
5 7 20 10 34 3 14 19 58 36 97 92 209 259 362 463 427 100 31 282 38 395 15
163 -33 296 -121 429 -283 l43 -52 107 104 c58 57 138 135 176 171 128 123
553 547 803 801 455 461 522 531 515 538 -35 35 -404 181 -573 227 -88 24
-294 67 -353 74 -23 2 -53 7 -67 11 -38 9 -516 13 -585 4z"/>
</g>
</svg>
